<svg width="16" height="12" viewBox="0 0 16 12" fill="none" xmlns="http://www.w3.org/2000/svg">
<path d="M14.0468 0H1.95655C0.877301 0 0 0.8646 0 1.92822V10.0718C0 11.1354 0.877301 12 1.95655 12H14.0434C15.1227 12 16 11.1354 16 10.0718V1.93148C16.0033 0.867863 15.126 0 14.0468 0ZM15.1094 10.0718C15.1094 10.6493 14.6327 11.1191 14.0468 11.1191H1.95655C1.37058 11.1191 0.893854 10.6493 0.893854 10.0718V1.93148C0.893854 1.354 1.37058 0.884176 1.95655 0.884176H14.0434C14.6294 0.884176 15.1061 1.354 15.1061 1.93148V10.0718H15.1094Z" fill="black"/>
<path d="M10.0906 5.89864L14.0037 2.44024C14.1858 2.27711 14.2023 1.99978 14.0368 1.81707C13.8713 1.63763 13.5899 1.62132 13.4045 1.78445L8.00825 6.55769L6.95549 5.6311C6.95218 5.62784 6.94887 5.62458 6.94887 5.62132C6.9257 5.59848 6.90252 5.5789 6.87604 5.55933L2.59216 1.78118C2.40677 1.61805 2.12537 1.63437 1.95984 1.81707C1.79431 1.99978 1.81086 2.27711 1.99626 2.44024L5.9557 5.928L2.01281 9.56585C1.83404 9.73225 1.82411 10.0096 1.99294 10.189C2.08233 10.2804 2.20151 10.3293 2.32069 10.3293C2.42994 10.3293 2.53919 10.2902 2.62526 10.2119L6.62774 6.5218L7.71361 7.47776C7.79969 7.5528 7.90563 7.58869 8.01156 7.58869C8.1175 7.58869 8.22675 7.54954 8.30951 7.4745L9.42518 6.48918L13.4045 10.2151C13.4906 10.2967 13.6031 10.3358 13.7124 10.3358C13.8315 10.3358 13.9474 10.2902 14.0368 10.1988C14.2056 10.0226 14.199 9.74203 14.0203 9.57564L10.0906 5.89864Z" fill="black"/>
</svg>
