<svg width="11" height="15" viewBox="0 0 11 15" fill="none" xmlns="http://www.w3.org/2000/svg">
<path d="M5.4974 0C2.46609 0 0 2.46609 0 5.4974C0 6.88992 0.877419 8.85738 2.60799 11.3452C3.87291 13.1638 5.117 14.5711 5.16941 14.6301L5.4974 15L5.8255 14.6301C5.8778 14.5711 7.12189 13.1638 8.38692 11.3452C10.1174 8.85738 10.9949 6.88992 10.9949 5.4974C10.9949 2.46609 8.52871 0 5.4974 0ZM7.67178 10.8373C6.81679 12.0673 5.95264 13.1259 5.4974 13.666C5.0433 13.1274 4.18236 12.0728 3.32794 10.8444C1.72451 8.53935 0.876961 6.69033 0.876961 5.4974C0.876961 2.94971 2.94971 0.876961 5.4974 0.876961C8.0452 0.876961 10.1178 2.94971 10.1178 5.4974C10.1178 6.68907 9.272 8.53558 7.67178 10.8373Z" fill="black"/>
<path d="M5.49744 2.03174C3.70839 2.03174 2.25293 3.4872 2.25293 5.27625C2.25293 7.06531 3.70839 8.52088 5.49744 8.52088C7.28661 8.52088 8.74207 7.06531 8.74207 5.27625C8.74207 3.4872 7.28661 2.03174 5.49744 2.03174ZM5.49744 7.64392C4.19202 7.64392 3.12989 6.58179 3.12989 5.27625C3.12989 3.97083 4.19202 2.9087 5.49744 2.9087C6.80299 2.9087 7.86511 3.97083 7.86511 5.27625C7.86511 6.58179 6.80299 7.64392 5.49744 7.64392Z" fill="black"/>
</svg>
